=====Jennifer Lopez FT. Pitbull - On The Floor HD 1080p By Haunting Summer=====

Format                           : MPEG-4
Format profile                   : Base Media / Version 2
Codec ID                         : mp42
File size                        : 108 MiB
Duration                         : 4mn 26s
Overall bit rate                 : 3 407 Kbps
Performer                        : JLO ft.Pitbull
Encoded date                     : 2011
Tagged date                      : UTC 2011-03-03 01:43:10

Video
ID                               : 1
Format                           : AVC
Format/Info                      : Advanced Video Codec
Format profile                   : High@L4.0
Format settings, CABAC           : Yes
Format settings, ReFrames        : 1 frame
Codec ID                         : avc1
Codec ID/Info                    : Advanced Video Coding
Duration                         : 4mn 26s
Bit rate mode                    : Variable
Bit rate                         : 3 278 Kbps
Maximum bit rate                 : 7 112 Kbps
Width                            : 1 920 pixels
Height                           : 1 080 pixels
Display aspect ratio             : 16:9
Frame rate mode                  : Variable
Frame rate                       : 23.976 fps
Minimum frame rate               : 17.241 fps
Maximum frame rate               : 24.390 fps
Color space                      : YUV
Chroma subsampling               : 4:2:0
Bit depth                        : 8 bits
Scan type                        : Progressive
Bits/(Pixel*Frame)               : 0.066
Stream size                      : 104 MiB (96%)
Tagged date                      : UTC 2011-03-03 01:43:11

Audio
ID                               : 2
Format                           : AAC
Format/Info                      : Advanced Audio Codec
Format version                   : Version 4
Format profile                   : LC
Format settings, SBR             : No
Codec ID                         : 40
Duration                         : 4mn 26s
Bit rate mode                    : Variable
Bit rate                         : 123 Kbps
Maximum bit rate                 : 178 Kbps
Channel(s)                       : 2 channels
Channel positions                : Front: L R
Sampling rate                    : 44.1 KHz
Stream size                      : 3.91 MiB (4%)
Title                            : (C) 2007 Google Inc. v08.13.2007.
Encoded date                     : UTC 2011-03-03 01:43:10
Tagged date                      : UTC 2011-03-03 01:43:11

========================== SCREEN SHOT ===================================

                         http://bayimg.com/OAjGFAADC
                         http://bayimg.com/OAjGLaADC
=============================================================================

>>>>>>>>>>>>>> LIFE IS TOO SHORT SO, ENJOY EVERY MOMENT <<<<<<<<<<<<<<<<

===================================================================================
 ##  #  # # # # ### ### ###     ##  #   ###  #   ## ### ===========================
#   # # ### ### #   # #  #      # # #   #   # # #   # =============================  
#   # # ### ### ##  # #  #      ##  #   ##  ###  #  ##=============================  
#   # # # # # # #   # #  #      #   #   #   # #   # # =============================  
 ##  #  # # # # ### # #  #      #   ### ### # # ##  ###===========================
==================================================================================
